<svg width="37" height="36" viewBox="0 0 37 36" fill="none" xmlns="http://www.w3.org/2000/svg">
<path d="M9.70752 33C10.0182 33 10.27 32.7482 10.27 32.4375C10.27 32.1268 10.0182 31.875 9.70752 31.875C9.39686 31.875 9.14502 32.1268 9.14502 32.4375C9.14502 32.7482 9.39686 33 9.70752 33Z" fill="#22262A" stroke="#22262A" stroke-width="2" stroke-miterlimit="10" stroke-linecap="round" stroke-linejoin="round"/>
<path d="M17.5825 33C17.8932 33 18.145 32.7482 18.145 32.4375C18.145 32.1268 17.8932 31.875 17.5825 31.875C17.2719 31.875 17.02 32.1268 17.02 32.4375C17.02 32.7482 17.2719 33 17.5825 33Z" fill="#22262A" stroke="#22262A" stroke-width="2" stroke-miterlimit="10" stroke-linecap="round" stroke-linejoin="round"/>
<path d="M3.52002 15H5.77002L8.02002 28.5H19.27L21.52 18.375H6.89502" stroke="#22262A" stroke-width="2" stroke-linecap="round" stroke-linejoin="round"/>
<circle cx="24.52" cy="12" r="11" fill="#FB7181" stroke="white" stroke-width="2"/>
<path d="M22.0536 14.63C22.2802 14.45 22.3836 14.3667 22.3636 14.38C23.0169 13.84 23.5302 13.3967 23.9036 13.05C24.2836 12.7033 24.6036 12.34 24.8636 11.96C25.1236 11.58 25.2536 11.21 25.2536 10.85C25.2536 10.5767 25.1902 10.3633 25.0636 10.21C24.9369 10.0567 24.7469 9.98 24.4936 9.98C24.2402 9.98 24.0402 10.0767 23.8936 10.27C23.7536 10.4567 23.6836 10.7233 23.6836 11.07H22.0336C22.0469 10.5033 22.1669 10.03 22.3936 9.65C22.6269 9.27 22.9302 8.99 23.3036 8.81C23.6836 8.63 24.1036 8.54 24.5636 8.54C25.3569 8.54 25.9536 8.74333 26.3536 9.15C26.7602 9.55667 26.9636 10.0867 26.9636 10.74C26.9636 11.4533 26.7202 12.1167 26.2336 12.73C25.7469 13.3367 25.1269 13.93 24.3736 14.51H27.0736V15.9H22.0536V14.63Z" fill="white"/>
</svg>
