<svg width="8" height="16" viewBox="0 0 8 16" fill="none" xmlns="http://www.w3.org/2000/svg">
  <path d="M0.284599 8.84747H1.9426V15.6795C1.9426 15.7443 1.96831 15.8064 2.01407 15.8522C2.05983 15.898 2.12189 15.9237 2.1866 15.9237H4.9986C5.06331 15.9237 5.12537 15.898 5.17113 15.8522C5.21689 15.8064 5.2426 15.7443 5.2426 15.6795V8.87949H7.1496C7.20939 8.8794 7.26708 8.85733 7.31169 8.81749C7.3563 8.77765 7.38474 8.7228 7.3916 8.66336L7.68159 6.14786C7.68554 6.1137 7.68223 6.07908 7.67188 6.04629C7.66152 6.01349 7.64435 5.98326 7.62151 5.95756C7.59866 5.93187 7.57064 5.91129 7.53929 5.89718C7.50794 5.88308 7.47396 5.87576 7.43959 5.8757H5.23959V4.29976C5.23959 3.82448 5.4956 3.58334 5.9996 3.58334H7.43559C7.50031 3.58334 7.56237 3.55761 7.60812 3.51183C7.65388 3.46604 7.6796 3.40394 7.6796 3.33919V1.03081C7.68013 0.966405 7.65521 0.904393 7.61026 0.858288C7.56531 0.812183 7.50396 0.785722 7.43959 0.784668L5.4586 0.784668H5.3676C4.45538 0.787889 3.5749 1.12004 2.8876 1.72023C2.56329 2.00381 2.31445 2.36358 2.16347 2.76719C2.01249 3.17081 1.96408 3.60564 2.0226 4.0326V5.8767H0.281593C0.216881 5.8767 0.154821 5.90242 0.109062 5.94821C0.0633033 5.994 0.0375977 6.0561 0.0375977 6.12085V8.60333C0.0375952 8.63564 0.0440006 8.66764 0.0564499 8.69746C0.0688992 8.72727 0.0871465 8.75432 0.110123 8.77703C0.133099 8.79974 0.160349 8.81766 0.1903 8.82976C0.220251 8.84185 0.252305 8.84787 0.284599 8.84747Z" fill="#385C8E" />
</svg>