<svg width="64" height="33" viewBox="0 0 64 33" fill="none" xmlns="http://www.w3.org/2000/svg">
<path d="M62 0H2C0.89543 0 0 0.89543 0 2V31C0 32.1046 0.89543 33 2 33H62C63.1046 33 64 32.1046 64 31V2C64 0.89543 63.1046 0 62 0Z" fill="#FF4858"/>
<path d="M24.2321 22V9.994H22.7381V15.16H15.7181V9.994H14.2241V22H15.7181V16.492H22.7381V22H24.2321ZM32.5105 22.216C36.0565 22.216 38.4685 19.552 38.4685 16.006C38.4685 12.46 36.0565 9.796 32.5105 9.796C28.9465 9.796 26.5525 12.46 26.5525 16.006C26.5525 19.552 28.9465 22.216 32.5105 22.216ZM32.5105 20.884C29.8105 20.884 28.1005 18.796 28.1005 16.006C28.1005 13.198 29.8105 11.128 32.5105 11.128C35.1925 11.128 36.9205 13.198 36.9205 16.006C36.9205 18.796 35.1925 20.884 32.5105 20.884ZM44.774 22V11.326H48.59V9.994H39.482V11.326H43.28V22H44.774Z" fill="white"/>
</svg>
