<svg width="194" height="162" viewBox="0 0 194 162" fill="none" xmlns="http://www.w3.org/2000/svg">
<path d="M13.5455 131.166V133.677H5.58054V139.212H11.7905V141.723H5.58054V149.931H2.50254V131.166H13.5455ZM26.145 149.931L21.825 142.425H19.476V149.931H16.398V131.166H22.878C24.318 131.166 25.533 131.418 26.523 131.922C27.531 132.426 28.278 133.101 28.764 133.947C29.268 134.793 29.52 135.738 29.52 136.782C29.52 138.006 29.16 139.122 28.44 140.13C27.738 141.12 26.649 141.795 25.173 142.155L29.817 149.931H26.145ZM19.476 139.968H22.878C24.03 139.968 24.894 139.68 25.47 139.104C26.064 138.528 26.361 137.754 26.361 136.782C26.361 135.81 26.073 135.054 25.497 134.514C24.921 133.956 24.048 133.677 22.878 133.677H19.476V139.968ZM36.5356 133.65V139.158H43.0156V141.669H36.5356V147.42H43.8256V149.931H33.4576V131.139H43.8256V133.65H36.5356ZM50.6948 133.65V139.158H57.1748V141.669H50.6948V147.42H57.9848V149.931H47.6168V131.139H57.9848V133.65H50.6948ZM74.9726 150.12C73.7126 150.12 72.5786 149.904 71.5706 149.472C70.5626 149.022 69.7706 148.392 69.1946 147.582C68.6186 146.772 68.3306 145.827 68.3306 144.747H71.6246C71.6966 145.557 72.0116 146.223 72.5696 146.745C73.1456 147.267 73.9466 147.528 74.9726 147.528C76.0346 147.528 76.8626 147.276 77.4566 146.772C78.0506 146.25 78.3476 145.584 78.3476 144.774C78.3476 144.144 78.1586 143.631 77.7806 143.235C77.4206 142.839 76.9616 142.533 76.4036 142.317C75.8636 142.101 75.1076 141.867 74.1356 141.615C72.9116 141.291 71.9126 140.967 71.1386 140.643C70.3826 140.301 69.7346 139.779 69.1946 139.077C68.6546 138.375 68.3846 137.439 68.3846 136.269C68.3846 135.189 68.6546 134.244 69.1946 133.434C69.7346 132.624 70.4906 132.003 71.4626 131.571C72.4346 131.139 73.5596 130.923 74.8376 130.923C76.6556 130.923 78.1406 131.382 79.2926 132.3C80.4626 133.2 81.1106 134.442 81.2366 136.026H77.8346C77.7806 135.342 77.4566 134.757 76.8626 134.271C76.2686 133.785 75.4856 133.542 74.5136 133.542C73.6316 133.542 72.9116 133.767 72.3536 134.217C71.7956 134.667 71.5166 135.315 71.5166 136.161C71.5166 136.737 71.6876 137.214 72.0296 137.592C72.3896 137.952 72.8396 138.24 73.3796 138.456C73.9196 138.672 74.6576 138.906 75.5936 139.158C76.8356 139.5 77.8436 139.842 78.6176 140.184C79.4096 140.526 80.0756 141.057 80.6156 141.777C81.1736 142.479 81.4526 143.424 81.4526 144.612C81.4526 145.566 81.1916 146.466 80.6696 147.312C80.1656 148.158 79.4186 148.842 78.4286 149.364C77.4566 149.868 76.3046 150.12 74.9726 150.12ZM100.07 131.166V149.931H96.9916V141.723H88.1626V149.931H85.0846V131.166H88.1626V139.212H96.9916V131.166H100.07ZM107.2 131.166V149.931H104.122V131.166H107.2ZM124.363 136.755C124.363 137.709 124.138 138.609 123.688 139.455C123.238 140.301 122.518 140.994 121.528 141.534C120.538 142.056 119.269 142.317 117.721 142.317H114.319V149.931H111.241V131.166H117.721C119.161 131.166 120.376 131.418 121.366 131.922C122.374 132.408 123.121 133.074 123.607 133.92C124.111 134.766 124.363 135.711 124.363 136.755ZM117.721 139.806C118.891 139.806 119.764 139.545 120.34 139.023C120.916 138.483 121.204 137.727 121.204 136.755C121.204 134.703 120.043 133.677 117.721 133.677H114.319V139.806H117.721ZM140.42 136.755C140.42 137.709 140.195 138.609 139.745 139.455C139.295 140.301 138.575 140.994 137.585 141.534C136.595 142.056 135.326 142.317 133.778 142.317H130.376V149.931H127.298V131.166H133.778C135.218 131.166 136.433 131.418 137.423 131.922C138.431 132.408 139.178 133.074 139.664 133.92C140.168 134.766 140.42 135.711 140.42 136.755ZM133.778 139.806C134.948 139.806 135.821 139.545 136.397 139.023C136.973 138.483 137.261 137.727 137.261 136.755C137.261 134.703 136.1 133.677 133.778 133.677H130.376V139.806H133.778ZM146.434 131.166V149.931H143.356V131.166H146.434ZM165.892 149.931H162.814L153.553 135.918V149.931H150.475V131.139H153.553L162.814 145.125V131.139H165.892V149.931ZM183.515 136.566C183.029 135.63 182.354 134.928 181.49 134.46C180.626 133.974 179.627 133.731 178.493 133.731C177.251 133.731 176.144 134.01 175.172 134.568C174.2 135.126 173.435 135.918 172.877 136.944C172.337 137.97 172.067 139.158 172.067 140.508C172.067 141.858 172.337 143.055 172.877 144.099C173.435 145.125 174.2 145.917 175.172 146.475C176.144 147.033 177.251 147.312 178.493 147.312C180.167 147.312 181.526 146.844 182.57 145.908C183.614 144.972 184.253 143.703 184.487 142.101H177.44V139.644H187.781V142.047C187.583 143.505 187.061 144.846 186.215 146.07C185.387 147.294 184.298 148.275 182.948 149.013C181.616 149.733 180.131 150.093 178.493 150.093C176.729 150.093 175.118 149.688 173.66 148.878C172.202 148.05 171.041 146.907 170.177 145.449C169.331 143.991 168.908 142.344 168.908 140.508C168.908 138.672 169.331 137.025 170.177 135.567C171.041 134.109 172.202 132.975 173.66 132.165C175.136 131.337 176.747 130.923 178.493 130.923C180.491 130.923 182.264 131.418 183.812 132.408C185.378 133.38 186.512 134.766 187.214 136.566H183.515Z" fill="#22262A"/>
<path d="M142.937 34.1817C142.937 34.1628 142.937 34.144 142.937 34.1251C142.929 33.5173 142.681 32.9374 142.247 32.5114C141.814 32.0853 141.229 31.8475 140.622 31.8496H140.013L130.602 13.6704C130.406 13.2932 130.11 12.9774 129.746 12.7575C129.382 12.5377 128.965 12.4225 128.54 12.4245H112.482L113.094 7.56797C113.194 6.63935 113.096 5.7 112.806 4.81207C112.516 3.92414 112.042 3.10785 111.413 2.41716C110.784 1.72647 110.016 1.17713 109.159 0.805453C108.302 0.433781 107.376 0.248253 106.442 0.261125H56.6015C55.9926 0.26438 55.4065 0.493087 54.9563 0.903106C54.5061 1.31312 54.2238 1.87538 54.1638 2.48134L53.6609 6.48175H82.0611C82.4961 6.47951 82.9272 6.565 83.3284 6.73313C83.7297 6.90126 84.0929 7.14857 84.3964 7.46028C84.6999 7.77199 84.9374 8.14169 85.0947 8.54729C85.2521 8.95288 85.3261 9.38605 85.3122 9.82088C85.2845 10.7127 84.912 11.559 84.2731 12.1818C83.6341 12.8046 82.7785 13.1552 81.8863 13.16H72.4146V13.1738H44.6053C43.975 13.1771 43.3704 13.4245 42.9187 13.864C42.4669 14.3036 42.2031 14.9011 42.1826 15.5311C42.1725 15.8388 42.2245 16.1454 42.3357 16.4325C42.4468 16.7197 42.6148 16.9814 42.8295 17.2021C43.0442 17.4228 43.3012 17.5979 43.5852 17.7169C43.8691 17.8358 44.1742 17.8963 44.4821 17.8946H81.3055C82.1426 18.0218 82.904 18.4515 83.4457 19.1023C83.9873 19.7531 84.2717 20.5798 84.2448 21.4261C84.2148 22.377 83.8189 23.2796 83.1396 23.9457C82.4604 24.6118 81.5502 24.9901 80.5989 25.0016H55.2173C54.5793 25.0049 53.9675 25.2558 53.5108 25.7014C53.0542 26.147 52.7884 26.7525 52.7695 27.3903C52.759 27.7012 52.8114 28.011 52.9235 28.3011C53.0357 28.5913 53.2052 28.8559 53.4221 29.0789C53.6389 29.302 53.8985 29.4789 54.1854 29.5992C54.4723 29.7195 54.7805 29.7806 55.0916 29.7789H80.1803C81.0254 29.8954 81.7978 30.32 82.3491 30.971C82.9004 31.6221 83.1918 32.4539 83.1674 33.3067C83.1375 34.2621 82.7382 35.1687 82.0536 35.8357C81.3689 36.5028 80.4522 36.8783 79.4964 36.8834H50.7178H48.2989C47.6609 36.8867 47.0491 37.1376 46.5925 37.5832C46.1358 38.0288 45.87 38.6343 45.8512 39.2721C45.8407 39.583 45.893 39.8928 46.0052 40.183C46.1173 40.4731 46.2869 40.7377 46.5037 40.9607C46.7205 41.1838 46.9802 41.3608 47.267 41.481C47.5539 41.6013 47.8621 41.6625 48.1732 41.6608H50.2602L49.4442 50.2022C49.3442 51.1307 49.4423 52.0699 49.7322 52.9577C50.0221 53.8455 50.4971 54.6616 51.1258 55.3522C51.7546 56.0427 52.5228 56.5919 53.3796 56.9635C54.2364 57.3351 55.1623 57.5206 56.0961 57.5078H57.8977C58.3204 59.9279 59.586 62.1204 61.4703 63.6968C63.3547 65.2733 65.7361 66.132 68.1929 66.1209C70.6918 66.1034 73.1118 65.2438 75.0616 63.6808C77.0115 62.1179 78.3773 59.943 78.9382 57.5078H101.406C103.199 57.4918 104.929 56.8431 106.291 55.676C107.544 56.8694 109.213 57.5266 110.943 57.5078H111.312C111.735 59.9279 113.001 62.1204 114.885 63.6968C116.769 65.2733 119.151 66.132 121.608 66.1209C124.106 66.1034 126.526 65.2438 128.476 63.6808C130.426 62.1179 131.792 59.943 132.353 57.5078H133.833C135.74 57.4711 137.568 56.7395 138.974 55.4504C140.381 54.1613 141.268 52.4034 141.47 50.5064L142.923 34.4142C142.923 34.3929 142.923 34.3715 142.923 34.3489C142.923 34.3262 142.93 34.2835 142.931 34.2496C142.932 34.2156 142.937 34.2005 142.937 34.1817ZM68.3173 61.3473C67.5407 61.3507 66.7714 61.1976 66.0552 60.8973C65.339 60.5969 64.6907 60.1553 64.1489 59.599C63.607 59.0426 63.1828 58.3828 62.9015 57.6589C62.6202 56.935 62.4876 56.1619 62.5116 55.3856C62.5629 53.7939 63.2287 52.2838 64.3693 51.1723C65.5098 50.0608 67.0366 49.4342 68.6291 49.424C69.4057 49.4206 70.1751 49.5736 70.8913 49.874C71.6074 50.1744 72.2558 50.6159 72.7976 51.1723C73.3394 51.7287 73.7637 52.3885 74.045 53.1124C74.3263 53.8363 74.4589 54.6094 74.4349 55.3856C74.3836 56.9774 73.7178 58.4874 72.5772 59.5989C71.4366 60.7105 69.9099 61.3371 68.3173 61.3473ZM121.735 61.3473C120.958 61.3507 120.189 61.1976 119.472 60.8973C118.756 60.5969 118.108 60.1553 117.566 59.599C117.024 59.0426 116.6 58.3828 116.319 57.6589C116.037 56.935 115.905 56.1619 115.929 55.3856C115.98 53.7939 116.646 52.2838 117.786 51.1723C118.927 50.0608 120.454 49.4342 122.046 49.424C122.823 49.4206 123.592 49.5736 124.308 49.874C125.025 50.1744 125.673 50.6159 126.215 51.1723C126.757 51.7287 127.181 52.3885 127.462 53.1124C127.743 53.8363 127.876 54.6094 127.852 55.3856C127.801 56.9774 127.135 58.4874 125.994 59.5989C124.854 60.7105 123.327 61.3371 121.735 61.3473ZM136.724 50.1972C136.644 50.8815 136.321 51.5143 135.813 51.9801C135.305 52.4459 134.647 52.7135 133.958 52.7342H132.359C131.831 50.4313 130.535 48.3766 128.685 46.9081C126.834 45.4396 124.538 44.6447 122.176 44.6542C119.771 44.6709 117.436 45.4676 115.523 46.9246C113.61 48.3816 112.221 50.4203 111.565 52.7342H111.074C110.789 52.7406 110.506 52.687 110.243 52.5767C109.981 52.4665 109.744 52.3021 109.55 52.0943C109.359 51.879 109.216 51.6261 109.129 51.3519C109.043 51.0777 109.015 50.7884 109.047 50.5027L112.054 17.1868H118.96L117.866 29.3188C117.766 30.2474 117.864 31.1868 118.154 32.0747C118.443 32.9626 118.918 33.7789 119.547 34.4696C120.176 35.1603 120.944 35.7097 121.801 36.0813C122.658 36.453 123.584 36.6385 124.518 36.6257H137.949L136.724 50.1972Z" fill="#FF6875"/>
</svg>
