<svg width="131" height="40" viewBox="0 0 131 40" fill="none" xmlns="http://www.w3.org/2000/svg">
<path d="M50.3029 15.5431V18.0991H54.4249V20.4751H50.3029V23.2471H54.9649V25.7131H47.2249V13.0771H54.9649V15.5431H50.3029ZM64.7032 18.1171V20.6731H56.7832V18.1171H64.7032ZM66.8826 19.3771C66.8826 18.1291 67.1526 17.0191 67.6926 16.0471C68.2326 15.0631 68.9826 14.3011 69.9426 13.7611C70.9146 13.2091 72.0126 12.9331 73.2366 12.9331C74.7366 12.9331 76.0206 13.3291 77.0886 14.1211C78.1566 14.9131 78.8706 15.9931 79.2306 17.3611H75.8466C75.5946 16.8331 75.2346 16.4311 74.7666 16.1551C74.3106 15.8791 73.7886 15.7411 73.2006 15.7411C72.2526 15.7411 71.4846 16.0711 70.8966 16.7311C70.3086 17.3911 70.0146 18.2731 70.0146 19.3771C70.0146 20.4811 70.3086 21.3631 70.8966 22.0231C71.4846 22.6831 72.2526 23.0131 73.2006 23.0131C73.7886 23.0131 74.3106 22.8751 74.7666 22.5991C75.2346 22.3231 75.5946 21.9211 75.8466 21.3931H79.2306C78.8706 22.7611 78.1566 23.8411 77.0886 24.6331C76.0206 25.4131 74.7366 25.8031 73.2366 25.8031C72.0126 25.8031 70.9146 25.5331 69.9426 24.9931C68.9826 24.4411 68.2326 23.6791 67.6926 22.7071C67.1526 21.7351 66.8826 20.6251 66.8826 19.3771ZM85.6875 25.8571C84.7035 25.8571 83.8155 25.6471 83.0235 25.2271C82.2435 24.8071 81.6255 24.2071 81.1695 23.4271C80.7255 22.6471 80.5035 21.7351 80.5035 20.6911C80.5035 19.6591 80.7315 18.7531 81.1875 17.9731C81.6435 17.1811 82.2675 16.5751 83.0595 16.1551C83.8515 15.7351 84.7395 15.5251 85.7235 15.5251C86.7075 15.5251 87.5955 15.7351 88.3875 16.1551C89.1795 16.5751 89.8035 17.1811 90.2595 17.9731C90.7155 18.7531 90.9435 19.6591 90.9435 20.6911C90.9435 21.7231 90.7095 22.6351 90.2415 23.4271C89.7855 24.2071 89.1555 24.8071 88.3515 25.2271C87.5595 25.6471 86.6715 25.8571 85.6875 25.8571ZM85.6875 23.1931C86.2755 23.1931 86.7735 22.9771 87.1815 22.5451C87.6015 22.1131 87.8115 21.4951 87.8115 20.6911C87.8115 19.8871 87.6075 19.2691 87.1995 18.8371C86.8035 18.4051 86.3115 18.1891 85.7235 18.1891C85.1235 18.1891 84.6255 18.4051 84.2295 18.8371C83.8335 19.2571 83.6355 19.8751 83.6355 20.6911C83.6355 21.4951 83.8275 22.1131 84.2115 22.5451C84.6075 22.9771 85.0995 23.1931 85.6875 23.1931ZM105.392 15.5611C106.64 15.5611 107.63 15.9391 108.362 16.6951C109.106 17.4511 109.478 18.5011 109.478 19.8451V25.7131H106.418V20.2591C106.418 19.6111 106.244 19.1131 105.896 18.7651C105.56 18.4051 105.092 18.2251 104.492 18.2251C103.892 18.2251 103.418 18.4051 103.07 18.7651C102.734 19.1131 102.566 19.6111 102.566 20.2591V25.7131H99.5064V20.2591C99.5064 19.6111 99.3324 19.1131 98.9844 18.7651C98.6484 18.4051 98.1804 18.2251 97.5804 18.2251C96.9804 18.2251 96.5064 18.4051 96.1584 18.7651C95.8224 19.1131 95.6544 19.6111 95.6544 20.2591V25.7131H92.5764V15.6691H95.6544V16.9291C95.9664 16.5091 96.3744 16.1791 96.8784 15.9391C97.3824 15.6871 97.9524 15.5611 98.5884 15.5611C99.3444 15.5611 100.016 15.7231 100.604 16.0471C101.204 16.3711 101.672 16.8331 102.008 17.4331C102.356 16.8811 102.83 16.4311 103.43 16.0831C104.03 15.7351 104.684 15.5611 105.392 15.5611ZM124.447 15.5611C125.695 15.5611 126.685 15.9391 127.417 16.6951C128.161 17.4511 128.533 18.5011 128.533 19.8451V25.7131H125.473V20.2591C125.473 19.6111 125.299 19.1131 124.951 18.7651C124.615 18.4051 124.147 18.2251 123.547 18.2251C122.947 18.2251 122.473 18.4051 122.125 18.7651C121.789 19.1131 121.621 19.6111 121.621 20.2591V25.7131H118.561V20.2591C118.561 19.6111 118.387 19.1131 118.039 18.7651C117.703 18.4051 117.235 18.2251 116.635 18.2251C116.035 18.2251 115.561 18.4051 115.213 18.7651C114.877 19.1131 114.709 19.6111 114.709 20.2591V25.7131H111.631V15.6691H114.709V16.9291C115.021 16.5091 115.429 16.1791 115.933 15.9391C116.437 15.6871 117.007 15.5611 117.643 15.5611C118.399 15.5611 119.071 15.7231 119.659 16.0471C120.259 16.3711 120.727 16.8331 121.063 17.4331C121.411 16.8811 121.885 16.4311 122.485 16.0831C123.085 15.7351 123.739 15.5611 124.447 15.5611Z" fill="#22262A"/>
<rect y="0.71167" width="39" height="39.0233" rx="16" fill="#40BFFF"/>
<path fill-rule="evenodd" clip-rule="evenodd" d="M27.5321 18.6904C28.3783 19.537 28.3783 20.9097 27.5321 21.7563L21.0321 28.2602C20.186 29.1068 18.8142 29.1068 17.968 28.2602L11.468 21.7563C10.6219 20.9097 10.6219 19.537 11.468 18.6904L17.968 12.1865C18.8142 11.3399 20.186 11.3399 21.0321 12.1865L27.5321 18.6904ZM19.5001 16.7854L16.0642 20.2233L19.5001 23.6613L22.936 20.2233L19.5001 16.7854Z" fill="white"/>
</svg>
