<svg width="40" height="26" viewBox="0 0 40 26" fill="none" xmlns="http://www.w3.org/2000/svg">
<path d="M2.52867 0.546631H37.5016C37.9523 0.555826 38.381 0.743542 38.6932 1.06891C39.0055 1.39429 39.1757 1.83056 39.1666 2.28155V23.9688C39.1757 24.4198 39.0055 24.8556 38.6932 25.1809C38.381 25.5063 37.9523 25.6945 37.5016 25.7037H2.52867C2.07795 25.6945 1.64926 25.5063 1.33702 25.1809C1.02478 24.8556 0.854519 24.4198 0.863629 23.9688V2.28155C0.854519 1.83056 1.02478 1.39429 1.33702 1.06891C1.64926 0.743542 2.07795 0.555826 2.52867 0.546631Z" fill="#5870BE"/>
<path d="M17.6187 13.1209C17.619 11.3441 18.146 9.60736 19.1328 8.13017C20.1196 6.65299 21.522 5.50178 23.1627 4.82205C24.8034 4.14232 26.6086 3.96468 28.3502 4.31149C30.0918 4.6583 31.6916 5.51401 32.9471 6.77048C34.2027 8.02694 35.0578 9.62771 35.4042 11.3704C35.7506 13.1131 35.5727 14.9194 34.8932 16.561C34.2137 18.2026 33.0631 19.6054 31.5867 20.5927C30.1103 21.5799 28.3744 22.1071 26.5986 22.1073C25.4193 22.1073 24.2514 21.8749 23.1619 21.4233C22.0723 20.9716 21.0823 20.3098 20.2484 19.4753C19.4145 18.6408 18.7531 17.6503 18.3019 16.56C17.8507 15.4697 17.6185 14.301 17.6187 13.1209Z" fill="#FFAF38"/>
<path d="M12.8396 22.1054C11.3085 22.1052 9.80289 21.7134 8.46579 20.967C7.12869 20.2207 6.00451 19.1446 5.20004 17.8411C4.39558 16.5376 3.93755 15.0502 3.86948 13.5197C3.8014 11.9892 4.12557 10.4665 4.81113 9.09666C5.49669 7.72682 6.52091 6.55551 7.78647 5.69326C9.05202 4.83102 10.5168 4.30665 12.0418 4.17038C13.5669 4.03412 15.1014 4.29025 16.4996 4.91448C17.8978 5.53871 19.1133 6.51034 20.0306 7.73696H18.8307V8.33742H20.4436C20.5646 8.52853 20.6786 8.72652 20.7846 8.92664H18.2306V9.52709H21.0736C21.1616 9.72721 21.2406 9.92743 21.3106 10.1275H17.6306V10.7275H21.4986C21.9848 12.5026 21.9178 14.384 21.3066 16.1199H17.6306V16.7203H21.0695C20.9795 16.9275 20.8826 17.1204 20.7846 17.3115H18.2306V17.912H20.4366C20.3036 18.1221 20.1647 18.3233 20.0237 18.5124H18.8307V19.1129H19.5306C18.6878 20.0538 17.6565 20.8066 16.5036 21.3222C15.3508 21.8378 14.1023 22.1045 12.8396 22.1054Z" fill="#E63737"/>
<path d="M2.98894 14.7704L3.53532 10.5104L4.38382 10.6193L5.00528 13.7651C5.06224 14.058 5.10309 14.2769 5.12781 14.4218C5.19612 14.2731 5.30087 14.0551 5.44205 13.7681L6.84215 10.935L7.60057 11.0324L7.0542 15.2924L6.51081 15.2227L6.96811 11.6571L5.27292 15.0637L4.7644 14.9984L3.99746 11.2137L3.53233 14.8402L2.98894 14.7704ZM9.95945 15.2786C9.74461 15.4184 9.54276 15.5106 9.3539 15.5553C9.16698 15.6002 8.97085 15.6094 8.7655 15.5831C8.42649 15.5395 8.17649 15.4238 8.01551 15.2357C7.85478 15.0457 7.79094 14.8219 7.82399 14.5642C7.84337 14.4131 7.89491 14.2799 7.97861 14.1647C8.0645 14.0477 8.16751 13.9585 8.28762 13.8972C8.40967 13.836 8.54292 13.795 8.68736 13.7742C8.79352 13.7603 8.95185 13.754 9.16236 13.7555C9.59113 13.7593 9.90976 13.7392 10.1182 13.6951C10.1294 13.6236 10.1362 13.5782 10.1387 13.5589C10.166 13.3458 10.1358 13.1893 10.0482 13.0894C9.92972 12.9541 9.73873 12.8695 9.47527 12.8357C9.22925 12.8041 9.04156 12.8243 8.9122 12.8963C8.78504 12.9666 8.67933 13.1076 8.59507 13.3193L8.09259 13.1839C8.16716 12.9709 8.26629 12.8045 8.38998 12.6845C8.51392 12.5626 8.68122 12.4787 8.89189 12.4329C9.1028 12.3851 9.34096 12.3783 9.60636 12.4124C9.86982 12.4462 10.0799 12.5047 10.2366 12.5878C10.3933 12.671 10.5043 12.765 10.5697 12.8699C10.6352 12.9728 10.6743 13.0979 10.6869 13.2453C10.6929 13.3366 10.681 13.4985 10.6512 13.731L10.5618 14.4284C10.4994 14.9147 10.4705 15.2241 10.4752 15.3566C10.482 15.4874 10.5108 15.6162 10.5615 15.7428L10.0152 15.6727C9.97491 15.5572 9.95631 15.4258 9.95945 15.2786ZM10.0657 14.1048C9.8659 14.1579 9.57268 14.1872 9.18603 14.1927C8.96702 14.1961 8.81048 14.2114 8.7164 14.2387C8.62232 14.266 8.54622 14.3143 8.48809 14.3837C8.43022 14.4511 8.39545 14.5303 8.38377 14.6214C8.36588 14.7608 8.40328 14.8838 8.49596 14.9902C8.59058 15.0969 8.7396 15.1633 8.943 15.1894C9.14447 15.2153 9.32926 15.1947 9.49735 15.1277C9.6657 15.0587 9.79649 14.9524 9.88973 14.8088C9.96107 14.6979 10.0115 14.5271 10.0411 14.2966L10.0657 14.1048ZM11.1185 14.878L11.6461 14.863C11.6486 15.0741 11.7086 15.2432 11.8262 15.3706C11.9457 15.4982 12.1246 15.5773 12.3629 15.6079C12.6031 15.6387 12.7875 15.6132 12.9162 15.5312C13.0451 15.4473 13.118 15.3395 13.1349 15.2078C13.15 15.0896 13.1106 14.9901 13.0166 14.9091C12.9509 14.8534 12.7803 14.7714 12.5047 14.6632C12.1336 14.517 11.8779 14.3995 11.7377 14.3106C11.5996 14.2201 11.4998 14.1078 11.4382 13.9739C11.3788 13.8382 11.3588 13.6949 11.3782 13.5438C11.3958 13.4062 11.4431 13.2833 11.52 13.175C11.5991 13.0651 11.6978 12.9783 11.8163 12.9147C11.9053 12.8651 12.0222 12.829 12.1669 12.8062C12.3138 12.7817 12.4676 12.7798 12.6284 12.8005C12.8706 12.8316 13.0782 12.8937 13.2514 12.9868C13.4265 13.0802 13.5499 13.1925 13.6217 13.3238C13.6937 13.4532 13.7334 13.6197 13.7407 13.8235L13.2203 13.8276C13.2175 13.6657 13.1656 13.533 13.0646 13.4295C12.9656 13.3262 12.8144 13.2615 12.611 13.2354C12.3708 13.2045 12.1943 13.2222 12.0814 13.2885C11.9686 13.3547 11.9053 13.4411 11.8916 13.5477C11.8829 13.6155 11.8964 13.6792 11.9321 13.7389C11.9675 13.8006 12.0284 13.8557 12.1147 13.9042C12.1645 13.9303 12.3128 13.9946 12.5596 14.0972C12.9169 14.2435 13.1641 14.3579 13.3012 14.4405C13.4405 14.5214 13.5441 14.6273 13.612 14.7581C13.6799 14.8889 13.7024 15.0434 13.6795 15.2216C13.6572 15.396 13.5847 15.5541 13.4622 15.6959C13.3418 15.836 13.1803 15.9363 12.9775 15.9969C12.7751 16.0556 12.5528 16.0694 12.3106 16.0383C11.9096 15.9868 11.6142 15.8642 11.4244 15.6705C11.2366 15.477 11.1346 15.2129 11.1185 14.878ZM15.3871 15.8869L15.4034 16.3587C15.2522 16.3707 15.1185 16.3693 15.0022 16.3544C14.8124 16.33 14.669 16.2811 14.5721 16.2076C14.4752 16.1341 14.4116 16.0462 14.3814 15.9439C14.3515 15.8396 14.3566 15.6305 14.3969 15.3167L14.6246 13.5412L14.2411 13.492L14.2932 13.0851L14.6768 13.1344L14.7748 12.3701L15.3352 12.1231L15.1969 13.2012L15.7229 13.2687L15.6707 13.6755L15.1448 13.608L14.9133 15.4126C14.8942 15.5617 14.8906 15.6587 14.9026 15.7036C14.9165 15.7487 14.9422 15.7865 14.9796 15.8169C15.019 15.8475 15.0774 15.8678 15.1549 15.8778C15.213 15.8852 15.2904 15.8883 15.3871 15.8869ZM18.0814 15.6983L18.6133 15.8345C18.4876 16.1393 18.2983 16.3641 18.0454 16.5089C17.7925 16.6536 17.4869 16.703 17.1285 16.657C16.6771 16.599 16.3365 16.4145 16.1066 16.1034C15.8789 15.7906 15.7973 15.3833 15.8616 14.8815C15.9282 14.3624 16.1136 13.9766 16.4177 13.7242C16.7218 13.4718 17.0869 13.373 17.5131 13.4277C17.9257 13.4807 18.2448 13.6644 18.4703 13.9789C18.6958 14.2934 18.7759 14.7054 18.7105 15.2149C18.7066 15.2459 18.6996 15.2922 18.6897 15.354L16.3883 15.0585C16.3642 15.4 16.4268 15.6719 16.5761 15.8742C16.7254 16.0765 16.9289 16.1942 17.1865 16.2273C17.3783 16.2519 17.5485 16.2225 17.697 16.1392C17.8455 16.0559 17.9737 15.9089 18.0814 15.6983ZM16.4725 14.6321L18.1957 14.8534C18.2057 14.5908 18.1648 14.3877 18.073 14.2439C17.9322 14.0211 17.7292 13.8926 17.4638 13.8585C17.2236 13.8277 17.0108 13.8821 16.8255 14.0217C16.6422 14.1616 16.5245 14.3651 16.4725 14.6321ZM19.1483 16.8454L19.5441 13.7594L20.0148 13.8198L19.9548 14.2877C20.103 14.0842 20.2319 13.9541 20.3416 13.8972C20.4532 13.8407 20.57 13.8202 20.6921 13.8359C20.8684 13.8586 21.0404 13.9377 21.2081 14.0735L20.9656 14.5356C20.8475 14.4437 20.7245 14.3895 20.5966 14.3731C20.4823 14.3584 20.3752 14.3801 20.2752 14.4381C20.1754 14.4942 20.0984 14.5808 20.044 14.6979C19.962 14.8764 19.9068 15.0761 19.8785 15.2969L19.6713 16.9126L19.1483 16.8454ZM24.4337 16.0059L24.9792 16.2207C24.8017 16.6685 24.5432 16.9947 24.2039 17.1993C23.8667 17.4021 23.4764 17.4751 23.0327 17.4181C22.5736 17.3591 22.2117 17.2181 21.9469 16.9951C21.6843 16.7704 21.5001 16.471 21.3945 16.0971C21.2908 15.7234 21.2651 15.3332 21.3172 14.9264C21.3741 14.4827 21.508 14.1071 21.7188 13.7994C21.9317 13.49 22.2051 13.2701 22.5388 13.1397C22.8748 13.0076 23.2307 12.9656 23.6065 13.0139C24.0327 13.0686 24.3771 13.2231 24.6399 13.4774C24.9026 13.7317 25.066 14.0628 25.1298 14.4707L24.558 14.5302C24.499 14.2076 24.3846 13.9635 24.2148 13.7979C24.045 13.6324 23.8178 13.5313 23.533 13.4948C23.2056 13.4527 22.9214 13.496 22.6804 13.6246C22.4414 13.7534 22.2603 13.9447 22.1372 14.1987C22.0143 14.4507 21.9348 14.7172 21.8988 14.9981C21.8523 15.3604 21.864 15.6838 21.9338 15.9685C22.0058 16.2514 22.1446 16.474 22.3503 16.6363C22.5559 16.7986 22.7885 16.8964 23.0481 16.9297C23.3639 16.9703 23.6429 16.9136 23.8852 16.7596C24.1274 16.6056 24.3103 16.3544 24.4337 16.0059ZM27.499 17.5308C27.2842 17.6706 27.0823 17.7628 26.8935 17.8075C26.7066 17.8524 26.5104 17.8617 26.3051 17.8353C25.9661 17.7918 25.7161 17.676 25.5551 17.488C25.3944 17.298 25.3305 17.0742 25.3636 16.8165C25.3829 16.6654 25.4345 16.5322 25.5182 16.4169C25.6041 16.3 25.7071 16.2108 25.8272 16.1494C25.9492 16.0883 26.0825 16.0473 26.2269 16.0265C26.3331 16.0125 26.4914 16.0063 26.7019 16.0077C27.1307 16.0116 27.4493 15.9914 27.6578 15.9473C27.6689 15.8759 27.6758 15.8305 27.6782 15.8111C27.7056 15.598 27.6754 15.4415 27.5878 15.3417C27.4693 15.2063 27.2783 15.1218 27.0149 15.0879C26.7688 15.0563 26.5811 15.0765 26.4518 15.1485C26.3246 15.2189 26.2189 15.3599 26.1347 15.5716L25.6322 15.4361C25.7067 15.2232 25.8059 15.0567 25.9296 14.9368C26.0535 14.8148 26.2208 14.731 26.4315 14.6852C26.6424 14.6374 26.8805 14.6306 27.1459 14.6647C27.4094 14.6985 27.6195 14.757 27.7762 14.8401C27.9329 14.9232 28.0439 15.0173 28.1092 15.1221C28.1748 15.2251 28.2139 15.3502 28.2265 15.4975C28.2325 15.5889 28.2206 15.7508 28.1908 15.9833L28.1013 16.6807C28.039 17.1669 28.0101 17.4763 28.0148 17.6089C28.0216 17.7397 28.0504 17.8684 28.1011 17.9951L27.5548 17.9249C27.5145 17.8095 27.4959 17.6781 27.499 17.5308ZM27.6053 16.3571C27.4055 16.4102 27.1123 16.4395 26.7256 16.445C26.5066 16.4483 26.3501 16.4637 26.256 16.491C26.1619 16.5183 26.0858 16.5666 26.0277 16.6359C25.9698 16.7033 25.935 16.7826 25.9233 16.8736C25.9055 17.0131 25.9429 17.136 26.0355 17.2425C26.1302 17.3491 26.2792 17.4155 26.4826 17.4417C26.6841 17.4675 26.8688 17.4469 27.0369 17.3799C27.2053 17.311 27.3361 17.2047 27.4293 17.0611C27.5006 16.9501 27.5511 16.7794 27.5807 16.5488L27.6053 16.3571ZM28.7433 18.0775L29.1391 14.9915L29.6099 15.0519L29.5498 15.5198C29.698 15.3163 29.827 15.1862 29.9366 15.1293C30.0483 15.0728 30.1651 15.0523 30.2871 15.068C30.4634 15.0907 30.6354 15.1698 30.8031 15.3056L30.5607 15.7677C30.4425 15.6758 30.3195 15.6216 30.1917 15.6052C30.0774 15.5905 29.9702 15.6122 29.8702 15.6702C29.7705 15.7263 29.6934 15.8129 29.639 15.93C29.557 16.1085 29.5019 16.3082 29.4736 16.529L29.2663 18.1447L28.7433 18.0775ZM32.733 18.5899L32.7829 18.2005C32.548 18.4814 32.2407 18.5975 31.861 18.5488C31.615 18.5172 31.397 18.4203 31.2071 18.258C31.0192 18.0961 30.8836 17.8867 30.8004 17.6298C30.7193 17.3713 30.699 17.0842 30.7395 16.7684C30.779 16.4604 30.8662 16.188 31.0009 15.9513C31.1359 15.7126 31.3146 15.5396 31.5371 15.4323C31.7596 15.325 31.9977 15.2877 32.2515 15.3203C32.4374 15.3441 32.598 15.4051 32.7331 15.5032C32.8684 15.5994 32.9736 15.7162 33.0485 15.8538L33.2445 14.3254L33.7647 14.3921L33.2183 18.6522L32.733 18.5899ZM31.2771 16.8374C31.2264 17.2326 31.2718 17.5387 31.4133 17.7558C31.5548 17.9729 31.7389 18.0959 31.9656 18.125C32.1942 18.1544 32.3998 18.0863 32.5825 17.9207C32.7674 17.7534 32.8845 17.478 32.9337 17.0944C32.9878 16.6721 32.9462 16.3517 32.8088 16.1332C32.6715 15.9147 32.4836 15.7902 32.2453 15.7596C32.0129 15.7297 31.806 15.7997 31.6247 15.9694C31.4454 16.1393 31.3295 16.4287 31.2771 16.8374Z" fill="white"/>
</svg>
