<svg width="39" height="26" viewBox="0 0 39 26" fill="none" xmlns="http://www.w3.org/2000/svg">
  <path d="M1.7118 0.707764H36.4468C36.8956 0.719826 37.3214 0.908897 37.6312 1.23396C37.9411 1.55902 38.1099 1.99355 38.1007 2.44268V24.1285C38.1099 24.5776 37.9411 25.0121 37.6312 25.3372C37.3214 25.6622 36.8956 25.8513 36.4468 25.8634H1.7118C1.26301 25.8513 0.837106 25.6622 0.527229 25.3372C0.217352 25.0121 0.0486054 24.5776 0.0577464 24.1285V2.44366C0.0483378 1.99436 0.217079 1.55972 0.526985 1.23444C0.83689 0.909168 1.26283 0.719825 1.7118 0.707764Z" fill="#F1F1F1" />
  <path d="M0.469856 25.2722C0.204239 24.9512 0.0595743 24.5471 0.0609205 24.1304V2.44366C0.0515118 1.99436 0.220131 1.55972 0.530037 1.23444C0.839942 0.909168 1.26588 0.719825 1.71485 0.707764H36.4489C36.8705 0.70871 37.2749 0.875324 37.5748 1.17191L0.474861 25.2722H0.469856Z" fill="white" fill-opacity="0.73" />
  <path d="M14.7058 18.6835L16.0057 16.332L15.2817 10.6846H17.0527L17.3387 14.0269L19.0718 10.6846H20.8998L16.6908 18.6835H14.7058ZM9.15271 14.4652C9.42571 13.0904 10.7527 12.654 12.7147 12.654C12.8317 12.0427 12.4428 11.8894 11.7808 11.9124C11.1971 11.9407 10.6233 12.0739 10.0868 12.3057L10.2417 10.9318C10.8859 10.7315 11.553 10.6141 12.2268 10.5825C13.4528 10.5605 14.8158 10.9521 14.5048 12.5461L13.7457 16.2983H11.9747L12.0907 15.7296C11.8851 15.9419 11.6394 16.1113 11.3678 16.2275C11.0962 16.3436 10.8042 16.4043 10.5088 16.4063C9.66979 16.4023 8.92281 15.8556 9.15381 14.4608L9.15271 14.4652ZM10.9637 14.3777C10.908 14.4567 10.8763 14.5503 10.8726 14.6469C10.8688 14.7435 10.8931 14.8394 10.9425 14.9225C10.9919 15.0056 11.0642 15.0727 11.1509 15.1155C11.2375 15.1582 11.3348 15.1747 11.4308 15.1633C11.6499 15.1731 11.8651 15.1033 12.0369 14.9669C12.2087 14.8305 12.3254 14.6369 12.3657 14.4212C12.3889 14.2526 12.4223 14.0855 12.4657 13.9209H12.0177C11.8182 13.9024 11.6172 13.9341 11.4331 14.0132C11.249 14.0924 11.0876 14.2162 10.9637 14.3738V14.3777ZM3.05273 16.2983L4.51672 9.12165H7.82373C8.11853 9.11904 8.40968 9.18731 8.67273 9.3205C8.93578 9.4537 9.16309 9.64802 9.33557 9.88725C9.50806 10.1265 9.6207 10.4036 9.66406 10.6953C9.70742 10.9871 9.68017 11.2849 9.58472 11.564C9.48953 12.2203 9.16078 12.8201 8.65881 13.253C8.15685 13.686 7.5155 13.9234 6.85278 13.9209H5.46973L4.99475 16.2983H3.05273ZM5.74573 12.5461H6.65576C6.92196 12.5248 7.17401 12.4172 7.37402 12.2402C7.57404 12.0632 7.71121 11.8258 7.76477 11.564C7.80674 11.4563 7.82215 11.3404 7.80969 11.2254C7.79724 11.1105 7.75731 11.0002 7.69324 10.904C7.62917 10.8078 7.54287 10.7286 7.44165 10.6729C7.34043 10.6171 7.2272 10.5862 7.11169 10.5835H6.16174L5.74573 12.5461Z" fill="#3284AE" />
  <path d="M26.3698 14.461C26.6458 13.0861 27.9867 12.6513 29.9757 12.6513C30.1137 12.0389 29.7198 11.8876 29.0498 11.9096C28.4537 11.9403 27.8672 12.0731 27.3158 12.302L27.4738 10.9281C28.1335 10.7303 28.8149 10.6133 29.5028 10.5797C30.7438 10.5577 32.1027 10.9489 31.7877 12.5418L31.0198 16.2931H29.2467L29.3647 15.7269C28.9352 16.1563 28.3539 16.3995 27.7467 16.4035C26.8887 16.4025 26.1328 15.8568 26.3698 14.461ZM28.2028 14.374C28.1489 14.4556 28.1195 14.5512 28.1184 14.6491C28.1173 14.7469 28.1444 14.8427 28.1964 14.9256C28.2484 15.0084 28.3231 15.0747 28.4116 15.1161C28.5002 15.1576 28.5989 15.1728 28.6958 15.1596C28.9136 15.1694 29.1274 15.0994 29.2977 14.9632C29.468 14.827 29.5832 14.6337 29.6217 14.4189C29.6607 14.2438 29.6808 14.0907 29.7218 13.9186H29.2887C29.0838 13.8979 28.8769 13.9287 28.6868 14.0081C28.4966 14.0874 28.3292 14.2127 28.1997 14.373L28.2028 14.374ZM31.8387 16.2931L33.3048 9.09497H35.1248L33.6398 16.2931H31.8387ZM20.2698 16.2931L21.7318 9.11793H25.0317C25.3257 9.11714 25.6156 9.18647 25.8774 9.3202C26.1393 9.45394 26.3655 9.64825 26.5372 9.88695C26.709 10.1256 26.8214 10.4017 26.8651 10.6926C26.9089 10.9835 26.8827 11.2806 26.7887 11.5593C26.6934 12.2179 26.3628 12.8194 25.858 13.2527C25.3533 13.686 24.7087 13.9216 24.0437 13.9157H22.6808L22.1868 16.2921L20.2698 16.2931ZM22.9568 12.5418H23.8447C24.1131 12.5212 24.3677 12.4148 24.5707 12.238C24.7737 12.0611 24.9143 11.8234 24.9718 11.5603C25.0116 11.4511 25.0248 11.3341 25.0103 11.2188C24.9957 11.1035 24.9539 10.9932 24.8883 10.8973C24.8227 10.8014 24.7351 10.7229 24.6329 10.6677C24.5307 10.6124 24.4169 10.5821 24.3008 10.5797H23.3528L22.9568 12.5418Z" fill="#3CA9C7" />
</svg>