<svg width="190" height="163" viewBox="0 0 190 163" fill="none" xmlns="http://www.w3.org/2000/svg">
<path d="M1.9672 134.509V131.701H7.5832V151.384H4.4782V134.509H1.9672ZM11.8117 141.286C11.8117 138.172 12.3337 135.742 13.3777 133.996C14.4397 132.232 16.2577 131.35 18.8317 131.35C21.4057 131.35 23.2147 132.232 24.2587 133.996C25.3207 135.742 25.8517 138.172 25.8517 141.286C25.8517 144.436 25.3207 146.902 24.2587 148.684C23.2147 150.448 21.4057 151.33 18.8317 151.33C16.2577 151.33 14.4397 150.448 13.3777 148.684C12.3337 146.902 11.8117 144.436 11.8117 141.286ZM22.8277 141.286C22.8277 139.828 22.7287 138.595 22.5307 137.587C22.3507 136.579 21.9727 135.76 21.3967 135.13C20.8207 134.482 19.9657 134.158 18.8317 134.158C17.6977 134.158 16.8427 134.482 16.2667 135.13C15.6907 135.76 15.3037 136.579 15.1057 137.587C14.9257 138.595 14.8357 139.828 14.8357 141.286C14.8357 142.798 14.9257 144.067 15.1057 145.093C15.2857 146.119 15.6637 146.947 16.2397 147.577C16.8337 148.207 17.6977 148.522 18.8317 148.522C19.9657 148.522 20.8207 148.207 21.3967 147.577C21.9907 146.947 22.3777 146.119 22.5577 145.093C22.7377 144.067 22.8277 142.798 22.8277 141.286ZM29.1085 141.286C29.1085 138.172 29.6305 135.742 30.6745 133.996C31.7365 132.232 33.5545 131.35 36.1285 131.35C38.7025 131.35 40.5115 132.232 41.5555 133.996C42.6175 135.742 43.1485 138.172 43.1485 141.286C43.1485 144.436 42.6175 146.902 41.5555 148.684C40.5115 150.448 38.7025 151.33 36.1285 151.33C33.5545 151.33 31.7365 150.448 30.6745 148.684C29.6305 146.902 29.1085 144.436 29.1085 141.286ZM40.1245 141.286C40.1245 139.828 40.0255 138.595 39.8275 137.587C39.6475 136.579 39.2695 135.76 38.6935 135.13C38.1175 134.482 37.2625 134.158 36.1285 134.158C34.9945 134.158 34.1395 134.482 33.5635 135.13C32.9875 135.76 32.6005 136.579 32.4025 137.587C32.2225 138.595 32.1325 139.828 32.1325 141.286C32.1325 142.798 32.2225 144.067 32.4025 145.093C32.5825 146.119 32.9605 146.947 33.5365 147.577C34.1305 148.207 34.9945 148.522 36.1285 148.522C37.2625 148.522 38.1175 148.207 38.6935 147.577C39.2875 146.947 39.6745 146.119 39.8545 145.093C40.0345 144.067 40.1245 142.798 40.1245 141.286ZM45.9194 136.453C45.9194 135.139 46.2974 134.113 47.0534 133.375C47.8274 132.619 48.8174 132.241 50.0234 132.241C51.2294 132.241 52.2104 132.619 52.9664 133.375C53.7404 134.113 54.1274 135.139 54.1274 136.453C54.1274 137.767 53.7404 138.802 52.9664 139.558C52.2104 140.314 51.2294 140.692 50.0234 140.692C48.8174 140.692 47.8274 140.314 47.0534 139.558C46.2974 138.802 45.9194 137.767 45.9194 136.453ZM62.3894 132.592L51.6164 151.384H48.5924L59.3654 132.592H62.3894ZM50.0234 134.104C48.8894 134.104 48.3224 134.887 48.3224 136.453C48.3224 138.037 48.8894 138.829 50.0234 138.829C50.5634 138.829 50.9774 138.64 51.2654 138.262C51.5714 137.866 51.7244 137.263 51.7244 136.453C51.7244 134.887 51.1574 134.104 50.0234 134.104ZM56.9084 147.496C56.9084 146.182 57.2864 145.156 58.0424 144.418C58.8164 143.662 59.8064 143.284 61.0124 143.284C62.2004 143.284 63.1724 143.662 63.9284 144.418C64.7024 145.156 65.0894 146.182 65.0894 147.496C65.0894 148.81 64.7024 149.845 63.9284 150.601C63.1724 151.357 62.2004 151.735 61.0124 151.735C59.8064 151.735 58.8164 151.357 58.0424 150.601C57.2864 149.845 56.9084 148.81 56.9084 147.496ZM60.9854 145.147C59.8514 145.147 59.2844 145.93 59.2844 147.496C59.2844 149.062 59.8514 149.845 60.9854 149.845C62.1194 149.845 62.6864 149.062 62.6864 147.496C62.6864 145.93 62.1194 145.147 60.9854 145.147ZM85.0076 151.384L80.6876 143.878H78.3386V151.384H75.2606V132.619H81.7406C83.1806 132.619 84.3956 132.871 85.3856 133.375C86.3936 133.879 87.1406 134.554 87.6266 135.4C88.1306 136.246 88.3826 137.191 88.3826 138.235C88.3826 139.459 88.0226 140.575 87.3026 141.583C86.6006 142.573 85.5116 143.248 84.0356 143.608L88.6796 151.384H85.0076ZM78.3386 141.421H81.7406C82.8926 141.421 83.7566 141.133 84.3326 140.557C84.9266 139.981 85.2236 139.207 85.2236 138.235C85.2236 137.263 84.9356 136.507 84.3596 135.967C83.7836 135.409 82.9106 135.13 81.7406 135.13H78.3386V141.421ZM95.3982 135.103V140.611H101.878V143.122H95.3982V148.873H102.688V151.384H92.3202V132.592H102.688V135.103H95.3982ZM117.522 132.619V135.13H109.557V140.665H115.767V143.176H109.557V151.384H106.479V132.619H117.522ZM123.426 132.619V144.58C123.426 146.002 123.795 147.073 124.533 147.793C125.289 148.513 126.333 148.873 127.665 148.873C129.015 148.873 130.059 148.513 130.797 147.793C131.553 147.073 131.931 146.002 131.931 144.58V132.619H135.009V144.526C135.009 146.056 134.676 147.352 134.01 148.414C133.344 149.476 132.453 150.268 131.337 150.79C130.221 151.312 128.988 151.573 127.638 151.573C126.288 151.573 125.055 151.312 123.939 150.79C122.841 150.268 121.968 149.476 121.32 148.414C120.672 147.352 120.348 146.056 120.348 144.526V132.619H123.426ZM154.433 151.384H151.355L142.094 137.371V151.384H139.016V132.592H142.094L151.355 146.578V132.592H154.433V151.384ZM164.604 132.619C166.602 132.619 168.348 133.006 169.842 133.78C171.354 134.536 172.515 135.634 173.325 137.074C174.153 138.496 174.567 140.161 174.567 142.069C174.567 143.977 174.153 145.633 173.325 147.037C172.515 148.441 171.354 149.521 169.842 150.277C168.348 151.015 166.602 151.384 164.604 151.384H158.475V132.619H164.604ZM164.604 148.873C166.8 148.873 168.483 148.279 169.653 147.091C170.823 145.903 171.408 144.229 171.408 142.069C171.408 139.891 170.823 138.19 169.653 136.966C168.483 135.742 166.8 135.13 164.604 135.13H161.553V148.873H164.604Z" fill="#22262A"/>
<path d="M116.196 16.7681L112.425 21.6121C117.771 25.756 121.455 31.6783 122.809 38.3054C124.164 44.9325 123.098 51.8255 119.807 57.7346C116.515 63.6437 111.215 68.1777 104.868 70.5146C98.5201 72.8514 91.5453 72.8364 85.2079 70.4721C78.8705 68.1079 73.59 63.5511 70.324 57.6278C67.058 51.7045 66.0225 44.807 67.4055 38.1858C68.7884 31.5647 72.4982 25.6583 77.8621 21.5375C83.226 17.4168 89.889 15.3545 96.6429 15.7246L91.3362 21.2915L95.2725 25.048L103.649 16.2476L107.402 12.3063L103.472 8.56488L94.6779 0.18689L90.9226 4.12822L96.6504 9.58447C87.8649 9.1844 79.2599 12.1646 72.6037 17.9125C65.9474 23.6604 61.7455 31.7396 60.8616 40.4896C59.9776 49.2396 62.4786 57.9959 67.8507 64.9591C73.2228 71.9222 81.0579 76.5632 89.7459 77.9285C91.5386 78.2118 93.3507 78.3543 95.1657 78.3546C102.331 78.3368 109.312 76.0829 115.134 71.9074C120.957 67.7319 125.331 61.843 127.647 55.0623C129.962 48.2816 130.104 40.9472 128.051 34.0824C125.998 27.2176 121.854 21.1647 116.196 16.7681Z" fill="#FF6875"/>
<path d="M98.4624 61.4918V57.959C102.651 57.4913 106.726 54.8462 106.726 49.8224C106.726 42.9971 100.38 42.2151 95.7443 41.6443C92.7811 41.2898 90.5119 40.8787 90.5119 39.0834C90.5119 36.5866 94.032 36.3176 95.5407 36.3176C97.786 36.3176 100.182 37.3736 100.997 38.7201L101.233 39.1123L105.885 36.9575L105.655 36.4885C104.964 35.1235 103.944 33.9525 102.687 33.0816C101.429 32.2106 99.9742 31.6674 98.4536 31.5012V28.3896H93.0099V31.4861C87.9346 32.2405 84.9198 35.0516 84.9198 39.0821C84.9198 45.6535 90.8865 46.3199 95.2402 46.8089C99.1199 47.2665 100.925 48.2245 100.925 49.8262C100.925 52.8774 96.6998 53.115 95.4049 53.115C92.5221 53.115 89.7475 51.6768 88.9379 49.7658L88.738 49.2944L83.6865 51.4354L83.8877 51.9069C85.385 55.4132 88.6173 57.6095 93.0162 58.1287V61.4918H98.4624Z" fill="#FF6875"/>
</svg>
