<svg width="125" height="16" viewBox="0 0 125 16" fill="none" xmlns="http://www.w3.org/2000/svg">
  <path d="M69.6202 6.18762L65.3687 9.70959L66.6195 15.4336L62.4885 11.9756L58.0915 15.2496L59.7903 9.5896L55.8242 5.88965L61.0047 5.84961L62.9513 0.288696L64.4545 5.92468L69.6202 6.18762Z" fill="#FFC600" />
  <path d="M42.1693 6.18762L37.9178 9.70959L39.1686 15.4336L35.0376 11.9756L30.6406 15.2496L32.3394 9.5896L28.3733 5.88965L33.5538 5.84961L35.5004 0.288696L37.0036 5.92468L42.1693 6.18762Z" fill="#FFC600" />
  <path d="M14.7203 6.18762L10.4688 9.70959L11.7196 15.4336L7.58864 11.9756L3.19161 15.2496L4.8904 9.5896L0.924316 5.88965L6.10478 5.84961L8.05144 0.288696L9.55463 5.92468L14.7203 6.18762Z" fill="#FFC600" />
  <path d="M97.0697 6.18762L92.8182 9.70959L94.069 15.4336L89.938 11.9756L85.541 15.2496L87.2398 9.5896L83.2737 5.88965L88.4542 5.84961L90.4008 0.288696L91.904 5.92468L97.0697 6.18762Z" fill="#FFC600" />
  <path d="M124.521 6.18762L120.269 9.70959L121.52 15.4336L117.389 11.9756L112.992 15.2496L114.691 9.5896L110.725 5.88965L115.905 5.84961L117.852 0.288696L119.355 5.92468L124.521 6.18762Z" fill="#C1C8CE" />
</svg>