<svg width="191" height="165" viewBox="0 0 191 165" fill="none" xmlns="http://www.w3.org/2000/svg">
<path d="M8.6975 153.1C7.4375 153.1 6.3035 152.884 5.2955 152.452C4.2875 152.002 3.4955 151.372 2.9195 150.562C2.3435 149.752 2.0555 148.807 2.0555 147.727H5.3495C5.4215 148.537 5.7365 149.203 6.2945 149.725C6.8705 150.247 7.6715 150.508 8.6975 150.508C9.7595 150.508 10.5875 150.256 11.1815 149.752C11.7755 149.23 12.0725 148.564 12.0725 147.754C12.0725 147.124 11.8835 146.611 11.5055 146.215C11.1455 145.819 10.6865 145.513 10.1285 145.297C9.5885 145.081 8.8325 144.847 7.8605 144.595C6.6365 144.271 5.6375 143.947 4.8635 143.623C4.1075 143.281 3.4595 142.759 2.9195 142.057C2.3795 141.355 2.1095 140.419 2.1095 139.249C2.1095 138.169 2.3795 137.224 2.9195 136.414C3.4595 135.604 4.2155 134.983 5.1875 134.551C6.1595 134.119 7.2845 133.903 8.5625 133.903C10.3805 133.903 11.8655 134.362 13.0175 135.28C14.1875 136.18 14.8355 137.422 14.9615 139.006H11.5595C11.5055 138.322 11.1815 137.737 10.5875 137.251C9.9935 136.765 9.2105 136.522 8.2385 136.522C7.3565 136.522 6.6365 136.747 6.0785 137.197C5.5205 137.647 5.2415 138.295 5.2415 139.141C5.2415 139.717 5.4125 140.194 5.7545 140.572C6.1145 140.932 6.5645 141.22 7.1045 141.436C7.6445 141.652 8.3825 141.886 9.3185 142.138C10.5605 142.48 11.5685 142.822 12.3425 143.164C13.1345 143.506 13.8005 144.037 14.3405 144.757C14.8985 145.459 15.1775 146.404 15.1775 147.592C15.1775 148.546 14.9165 149.446 14.3945 150.292C13.8905 151.138 13.1435 151.822 12.1535 152.344C11.1815 152.848 10.0295 153.1 8.6975 153.1ZM21.8604 134.146V146.107C21.8604 147.529 22.2294 148.6 22.9674 149.32C23.7234 150.04 24.7674 150.4 26.0994 150.4C27.4494 150.4 28.4934 150.04 29.2314 149.32C29.9874 148.6 30.3654 147.529 30.3654 146.107V134.146H33.4434V146.053C33.4434 147.583 33.1104 148.879 32.4444 149.941C31.7784 151.003 30.8874 151.795 29.7714 152.317C28.6554 152.839 27.4224 153.1 26.0724 153.1C24.7224 153.1 23.4894 152.839 22.3734 152.317C21.2754 151.795 20.4024 151.003 19.7544 149.941C19.1064 148.879 18.7824 147.583 18.7824 146.053V134.146H21.8604ZM50.573 139.735C50.573 140.689 50.348 141.589 49.898 142.435C49.448 143.281 48.728 143.974 47.738 144.514C46.748 145.036 45.479 145.297 43.931 145.297H40.529V152.911H37.451V134.146H43.931C45.371 134.146 46.586 134.398 47.576 134.902C48.584 135.388 49.331 136.054 49.817 136.9C50.321 137.746 50.573 138.691 50.573 139.735ZM43.931 142.786C45.101 142.786 45.974 142.525 46.55 142.003C47.126 141.463 47.414 140.707 47.414 139.735C47.414 137.683 46.253 136.657 43.931 136.657H40.529V142.786H43.931ZM66.6306 139.735C66.6306 140.689 66.4056 141.589 65.9556 142.435C65.5056 143.281 64.7856 143.974 63.7956 144.514C62.8056 145.036 61.5366 145.297 59.9886 145.297H56.5866V152.911H53.5086V134.146H59.9886C61.4286 134.146 62.6436 134.398 63.6336 134.902C64.6416 135.388 65.3886 136.054 65.8746 136.9C66.3786 137.746 66.6306 138.691 66.6306 139.735ZM59.9886 142.786C61.1586 142.786 62.0316 142.525 62.6076 142.003C63.1836 141.463 63.4716 140.707 63.4716 139.735C63.4716 137.683 62.3106 136.657 59.9886 136.657H56.5866V142.786H59.9886ZM78.1253 153.1C76.3793 153.1 74.7683 152.695 73.2923 151.885C71.8343 151.057 70.6733 149.914 69.8093 148.456C68.9633 146.98 68.5403 145.324 68.5403 143.488C68.5403 141.652 68.9633 140.005 69.8093 138.547C70.6733 137.089 71.8343 135.955 73.2923 135.145C74.7683 134.317 76.3793 133.903 78.1253 133.903C79.8893 133.903 81.5003 134.317 82.9583 135.145C84.4343 135.955 85.5953 137.089 86.4413 138.547C87.2873 140.005 87.7103 141.652 87.7103 143.488C87.7103 145.324 87.2873 146.98 86.4413 148.456C85.5953 149.914 84.4343 151.057 82.9583 151.885C81.5003 152.695 79.8893 153.1 78.1253 153.1ZM78.1253 150.427C79.3673 150.427 80.4743 150.148 81.4463 149.59C82.4183 149.014 83.1743 148.204 83.7143 147.16C84.2723 146.098 84.5513 144.874 84.5513 143.488C84.5513 142.102 84.2723 140.887 83.7143 139.843C83.1743 138.799 82.4183 137.998 81.4463 137.44C80.4743 136.882 79.3673 136.603 78.1253 136.603C76.8833 136.603 75.7763 136.882 74.8043 137.44C73.8323 137.998 73.0673 138.799 72.5093 139.843C71.9693 140.887 71.6993 142.102 71.6993 143.488C71.6993 144.874 71.9693 146.098 72.5093 147.16C73.0673 148.204 73.8323 149.014 74.8043 149.59C75.7763 150.148 76.8833 150.427 78.1253 150.427ZM100.486 152.911L96.1661 145.405H93.8171V152.911H90.7391V134.146H97.2191C98.6591 134.146 99.8741 134.398 100.864 134.902C101.872 135.406 102.619 136.081 103.105 136.927C103.609 137.773 103.861 138.718 103.861 139.762C103.861 140.986 103.501 142.102 102.781 143.11C102.079 144.1 100.99 144.775 99.5141 145.135L104.158 152.911H100.486ZM93.8171 142.948H97.2191C98.3711 142.948 99.2351 142.66 99.8111 142.084C100.405 141.508 100.702 140.734 100.702 139.762C100.702 138.79 100.414 138.034 99.8381 137.494C99.2621 136.936 98.3891 136.657 97.2191 136.657H93.8171V142.948ZM119.922 134.146V136.657H114.927V152.911H111.849V136.657H106.827V134.146H119.922ZM131.349 148.726C133.077 147.232 134.436 146.008 135.426 145.054C136.434 144.082 137.271 143.074 137.937 142.03C138.603 140.986 138.936 139.942 138.936 138.898C138.936 137.818 138.675 136.972 138.153 136.36C137.649 135.748 136.848 135.442 135.75 135.442C134.688 135.442 133.86 135.784 133.266 136.468C132.69 137.134 132.384 138.034 132.348 139.168H129.378C129.432 137.116 130.044 135.55 131.214 134.47C132.402 133.372 133.905 132.823 135.723 132.823C137.685 132.823 139.215 133.363 140.313 134.443C141.429 135.523 141.987 136.963 141.987 138.763C141.987 140.059 141.654 141.31 140.988 142.516C140.34 143.704 139.557 144.775 138.639 145.729C137.739 146.665 136.587 147.754 135.183 148.996L133.968 150.076H142.527V152.641H129.405V150.4L131.349 148.726ZM144.853 148.807V146.485L153.925 133.471H157.651V146.134H160.162V148.807H157.651V152.911H154.627V148.807H144.853ZM154.762 136.603L148.39 146.134H154.762V136.603ZM173.107 127.423L165.763 157.636H162.739L170.056 127.423H173.107ZM189.055 135.604L181.549 152.911H178.444L186.031 135.928H176.041V133.309H189.055V135.604Z" fill="#22262A"/>
<path d="M50.6362 70.46V89.0251H118.304V70.46C118.301 68.3903 117.478 66.406 116.014 64.9424C114.551 63.4789 112.566 62.6555 110.497 62.6528H58.4435C56.3737 62.6555 54.3894 63.4789 52.9259 64.9424C51.4623 66.406 50.6389 68.3903 50.6362 70.46V70.46ZM55.841 70.46C55.842 69.7701 56.1165 69.1088 56.6044 68.621C57.0922 68.1331 57.7536 67.8587 58.4435 67.8577H61.0459V83.8241H55.841V70.46ZM66.2519 67.8577H72.9817L84.47 79.346L95.9583 67.8577H102.684V83.8241H66.2519V67.8577ZM113.099 70.46V83.8203H107.894V67.8539H110.497C111.187 67.8549 111.849 68.1299 112.337 68.6186C112.825 69.1072 113.099 69.7695 113.099 70.46ZM88.5974 67.8577L84.47 71.985L80.3426 67.8577H88.5974Z" fill="#FF6875"/>
<path d="M103.942 52.2382H107.898V47.0333H110.5C112.57 47.0307 114.554 46.2073 116.018 44.7437C117.482 43.2802 118.305 41.2959 118.308 39.2261V34.0213C118.307 25.0475 114.742 16.4414 108.396 10.0962C102.051 3.75106 93.4444 0.186556 84.4707 0.18689C75.4969 0.187223 66.8908 3.75236 60.5456 10.098C54.2004 16.4437 50.6359 25.0501 50.6362 34.0238L50.6362 39.2286C50.6389 41.2984 51.4623 43.2827 52.9259 44.7462C54.3894 46.2098 56.3737 47.0332 58.4435 47.0359H62.386C63.8334 51.1351 66.3934 54.7504 69.7793 57.477C73.1652 60.2035 77.2432 61.9337 81.5568 62.4737C85.8703 63.0137 90.2491 62.3423 94.2026 60.5345C98.1561 58.7267 101.528 55.854 103.942 52.2382ZM110.5 41.8273H107.747C107.844 40.9632 107.893 40.0944 107.893 39.2249V34.0201C107.893 33.1506 107.844 32.2817 107.747 31.4177H110.495C111.185 31.4187 111.847 31.6932 112.334 32.181C112.822 32.6688 113.097 33.3302 113.098 34.0201V39.2249C113.098 39.9156 112.824 40.5783 112.336 41.0672C111.848 41.5561 111.186 41.8313 110.495 41.8323L110.5 41.8273ZM84.47 5.39485C90.7277 5.4029 96.8111 7.45745 101.792 11.2452C106.773 15.0329 110.379 20.3458 112.059 26.3738C111.545 26.269 111.021 26.2164 110.497 26.2166H106.553C104.938 21.6499 101.948 17.696 97.9927 14.8995C94.0378 12.1029 89.3132 10.6012 84.4694 10.6012C79.6257 10.6012 74.901 12.1029 70.9461 14.8995C66.9912 17.696 64.0006 21.6499 62.386 26.2166H58.4435C57.9186 26.2164 57.395 26.269 56.8808 26.3738C58.5609 20.3458 62.1666 15.0329 67.1478 11.2452C72.129 7.45745 78.2123 5.4029 84.47 5.39485ZM99.4156 23.6192C97.7329 26.0231 95.4965 27.9869 92.8953 29.3449C90.2941 30.7028 87.4044 31.415 84.47 31.4214H66.438C66.9591 27.8029 68.5571 24.4249 71.0242 21.7271C73.4913 19.0292 76.7133 17.1362 80.2709 16.2945C83.8285 15.4528 87.5571 15.7013 90.9716 17.0077C94.3861 18.3141 97.3284 20.6178 99.4156 23.6192ZM58.4435 41.8323C57.7536 41.8313 57.0922 41.5568 56.6044 41.069C56.1165 40.5812 55.842 39.9198 55.841 39.2299V34.0251C55.842 33.3352 56.1165 32.6738 56.6044 32.186C57.0922 31.6982 57.7536 31.4237 58.4435 31.4227H61.1967C61.0998 32.2868 61.0511 33.1556 61.0509 34.0251V39.2299C61.0511 40.0994 61.0998 40.9682 61.1967 41.8323H58.4435ZM66.2507 39.2299V36.6275H84.47C87.7655 36.6214 91.0229 35.9225 94.0308 34.5762C97.0387 33.2299 99.73 31.2663 101.93 28.8127C102.436 30.5035 102.692 32.259 102.691 34.0238V39.2286C102.693 41.9297 102.092 44.5973 100.931 47.0359H92.2773L89.9866 44.7503C88.5223 46.2144 86.5364 47.0369 84.4656 47.0369C82.3949 47.0369 80.409 46.2144 78.9446 44.7503L75.2648 48.4301C77.4797 50.6449 80.4191 51.9865 83.5435 52.2087C86.6678 52.4309 89.7675 51.5187 92.2735 49.6395V52.2382H97.2017C94.6404 54.7472 91.3954 56.4442 87.8735 57.1164C84.3516 57.7886 80.7097 57.406 77.4043 56.0166C74.099 54.6273 71.2775 52.293 69.2935 49.3064C67.3095 46.3199 66.2514 42.8141 66.2519 39.2286L66.2507 39.2299Z" fill="#FF6875"/>
</svg>
