<svg width="16" height="13" viewBox="0 0 16 13" fill="none" xmlns="http://www.w3.org/2000/svg">
  <path d="M15.6013 2.19311C15.051 2.43338 14.469 2.59311 13.8733 2.66739C14.5014 2.2947 14.971 1.70442 15.1933 1.0084C14.6059 1.35698 13.9633 1.60265 13.2933 1.73484C12.8821 1.29453 12.348 0.988249 11.7605 0.855836C11.1729 0.723423 10.5592 0.771012 9.99905 0.992411C9.43892 1.21381 8.95836 1.59877 8.61989 2.0972C8.28141 2.59563 8.1007 3.18445 8.10126 3.78706C8.09907 4.01709 8.12255 4.24665 8.17126 4.47147C6.97788 4.41284 5.81031 4.10287 4.74486 3.56181C3.67941 3.02075 2.74007 2.26079 1.98826 1.3316C1.60216 1.99189 1.48257 2.77477 1.65393 3.52031C1.82529 4.26586 2.27467 4.91781 2.91026 5.34299C2.43555 5.33038 1.97082 5.20375 1.55526 4.97377V5.00679C1.5559 5.69947 1.79484 6.37082 2.2319 6.908C2.66896 7.44517 3.27751 7.81543 3.95526 7.95654C3.69853 8.02468 3.43387 8.05833 3.16826 8.0566C2.97765 8.06007 2.78721 8.04296 2.60026 8.00557C2.79386 8.60089 3.16701 9.12158 3.6684 9.49605C4.1698 9.87053 4.77481 10.0804 5.40026 10.0968C4.33966 10.926 3.03222 11.3762 1.68626 11.3756C1.4463 11.3773 1.20647 11.3636 0.968262 11.3346C2.33943 12.2186 3.93712 12.6864 5.56826 12.6814C6.69151 12.6892 7.80512 12.4737 8.8444 12.0472C9.88369 11.6208 10.8279 10.992 11.6223 10.1973C12.4167 9.40269 13.0453 8.45802 13.4717 7.41822C13.8982 6.37841 14.1138 5.26419 14.1063 4.14027C14.1063 4.00719 14.1063 3.87912 14.0953 3.75204C14.6879 3.32843 15.1983 2.80013 15.6013 2.19311Z" fill="#03A9F4" />
</svg>