<svg width="39" height="26" viewBox="0 0 39 26" fill="none" xmlns="http://www.w3.org/2000/svg">
  <path d="M1.76475 0.546631H36.7648C36.9881 0.550924 37.2084 0.599267 37.4131 0.688805C37.6177 0.778344 37.8028 0.907291 37.9576 1.06843C38.1124 1.22956 38.2339 1.41967 38.3153 1.62784C38.3966 1.83601 38.4363 2.05808 38.4317 2.28155V23.9688C38.4363 24.1923 38.3966 24.4143 38.3153 24.6225C38.2339 24.8307 38.1124 25.0208 37.9576 25.1819C37.8028 25.3431 37.6177 25.472 37.4131 25.5615C37.2084 25.6511 36.9881 25.6994 36.7648 25.7037H1.76475C1.54141 25.6994 1.32112 25.6511 1.11644 25.5615C0.911755 25.472 0.726697 25.3431 0.57188 25.1819C0.417064 25.0208 0.295446 24.8307 0.214092 24.6225C0.132738 24.4143 0.09325 24.1923 0.097759 23.9688V2.28155C0.09325 2.05808 0.132738 1.83601 0.214092 1.62784C0.295446 1.41967 0.417064 1.22956 0.57188 1.06843C0.726697 0.907291 0.911755 0.778344 1.11644 0.688805C1.32112 0.599267 1.54141 0.550924 1.76475 0.546631Z" fill="url(#paint0_linear_8_528)" />
  <defs>
    <linearGradient id="paint0_linear_8_528" x1="19.2648" y1="25.7037" x2="19.2648" y2="0.546631" gradientUnits="userSpaceOnUse">
      <stop stop-color="#E59703" />
      <stop offset="0.231" stop-color="#E59703" />
      <stop offset="0.234" stop-color="white" />
      <stop offset="0.761" stop-color="white" />
      <stop offset="0.766" stop-color="#5457BB" />
      <stop offset="1" stop-color="#5457BB" />
    </linearGradient>
  </defs>
</svg>