<svg width="39" height="26" viewBox="0 0 39 26" fill="none" xmlns="http://www.w3.org/2000/svg">
  <path d="M1.66172 0.744385H36.6438C36.867 0.748808 37.0872 0.797452 37.2917 0.887048C37.4963 0.976644 37.6812 1.10555 37.8359 1.26667C37.9906 1.42779 38.1122 1.61798 38.1935 1.82608C38.2748 2.03419 38.3142 2.2564 38.3097 2.47979V24.1685C38.3185 24.6195 38.148 25.0555 37.8356 25.3806C37.5231 25.7058 37.0945 25.8935 36.6438 25.9024H1.66172C1.211 25.8935 0.782255 25.7058 0.469829 25.3806C0.157403 25.0555 -0.0131316 24.6195 -0.00429216 24.1685V2.47979C-0.008802 2.2564 0.0307491 2.03419 0.112041 1.82608C0.193333 1.61798 0.314752 1.42779 0.469463 1.26667C0.624174 1.10555 0.809087 0.976644 1.01365 0.887048C1.21822 0.797452 1.43846 0.748808 1.66172 0.744385Z" fill="#353A40" />
  <path d="M22.6847 17.319C22.4203 17.1845 22.2029 16.9726 22.0608 16.7122C21.8904 16.3933 21.8075 16.0353 21.8208 15.674C21.8061 15.4277 21.8404 15.1808 21.9218 14.9479C22.0031 14.715 22.13 14.5007 22.2948 14.3172C22.47 14.1502 22.6777 14.0209 22.9049 13.9376C23.1322 13.8543 23.3741 13.8183 23.6157 13.8325C23.8592 13.8168 24.1033 13.8511 24.333 13.9332C24.5627 14.0152 24.7733 14.1435 24.9518 14.3099C25.1151 14.4899 25.2406 14.7009 25.3212 14.9303C25.4017 15.1598 25.4356 15.4029 25.4208 15.6456C25.4356 15.9975 25.367 16.3479 25.2207 16.6682C25.0885 16.9289 24.8827 17.1451 24.6288 17.2897C24.3314 17.447 23.9979 17.5238 23.6617 17.512C23.3255 17.5241 22.991 17.4581 22.6847 17.319ZM23.0907 14.9005C22.9618 15.139 22.8943 15.4058 22.8943 15.6769C22.8943 15.948 22.9618 16.2147 23.0907 16.4532C23.1587 16.5271 23.2413 16.5859 23.3333 16.6262C23.4252 16.6665 23.5244 16.6877 23.6248 16.6877C23.7251 16.6877 23.8243 16.6665 23.9163 16.6262C24.0082 16.5859 24.0907 16.5271 24.1587 16.4532C24.3103 16.2058 24.377 15.9154 24.3488 15.6266C24.3703 15.3658 24.2995 15.106 24.1488 14.8922C24.0827 14.8157 24.0001 14.7554 23.9072 14.7154C23.8144 14.6753 23.7138 14.6566 23.6128 14.6611C23.5133 14.6583 23.4145 14.6783 23.324 14.7198C23.2335 14.7612 23.1536 14.8233 23.0907 14.9005ZM13.1787 17.4758C13.0044 17.4586 12.8349 17.4091 12.6787 17.3297C12.5371 17.2524 12.4122 17.1479 12.3108 17.0224C12.207 16.9033 12.129 16.7643 12.0818 16.6135C12.0204 16.419 11.9868 16.2168 11.9818 16.013V13.8936H13.0527V16.0629C13.0479 16.1453 13.0595 16.2282 13.0868 16.3062C13.1141 16.3841 13.1566 16.4558 13.2118 16.5172C13.3331 16.6216 13.4877 16.6789 13.6477 16.6789C13.8077 16.6789 13.9624 16.6216 14.0837 16.5172C14.1389 16.4552 14.1813 16.3827 14.2084 16.3042C14.2355 16.2257 14.2468 16.1428 14.2417 16.0599V13.8907H15.3127V16.0101C15.3133 16.2144 15.2795 16.4174 15.2128 16.6105C15.1511 16.7943 15.0485 16.9614 14.9127 17.0996C14.793 17.2303 14.6459 17.3326 14.4818 17.3996C14.2406 17.4836 13.9861 17.5238 13.7307 17.5178C13.5464 17.5141 13.3625 17.4998 13.1798 17.4748L13.1787 17.4758ZM28.3177 17.4519L27.0177 15.4986V17.4519H26.0077V13.8946H27.0077L28.3168 15.8621V13.8946H29.3287V17.4519H28.3177ZM18.3397 17.4519L17.0398 15.4986V17.4519H16.0298V13.8946H17.0298L18.3378 15.8621V13.8946H19.3497V17.4519H18.3397ZM20.1097 17.4426V13.8916H21.1897V17.4426H20.1097ZM11.9048 12.4587C11.6733 12.2186 11.5358 11.9035 11.5177 11.5704L12.5398 11.5055C12.5505 11.6442 12.5965 11.7776 12.6737 11.8934C12.7294 11.9651 12.8016 12.0222 12.8842 12.06C12.9667 12.0978 13.0571 12.1154 13.1477 12.1108C13.2757 12.1193 13.4024 12.0794 13.5028 11.9994C13.5404 11.9696 13.5708 11.932 13.5919 11.889C13.613 11.846 13.6243 11.7986 13.6249 11.7507C13.6255 11.7028 13.6153 11.6555 13.5952 11.612C13.5751 11.5684 13.5456 11.5298 13.5088 11.4991C13.3426 11.3913 13.1548 11.3209 12.9587 11.2929C12.5933 11.2317 12.248 11.0838 11.9518 10.861C11.8541 10.7759 11.7765 10.67 11.7246 10.5513C11.6727 10.4326 11.6479 10.3041 11.6517 10.1746C11.6522 9.99076 11.7061 9.81095 11.8068 9.65718C11.9207 9.48566 12.0834 9.35237 12.2738 9.27414C12.5463 9.16973 12.8373 9.12223 13.1288 9.1349C13.4857 9.11107 13.8411 9.19988 14.1448 9.38896C14.2673 9.48595 14.3677 9.60819 14.4395 9.74708C14.5112 9.88597 14.5526 10.0385 14.5608 10.1946L13.5487 10.2557C13.5355 10.1227 13.4753 9.99875 13.3788 9.90635C13.2767 9.82837 13.1499 9.78978 13.0217 9.7974C12.9211 9.79007 12.8212 9.81885 12.7397 9.87851C12.7098 9.90247 12.6856 9.93276 12.6692 9.96743C12.6527 10.0021 12.6444 10.04 12.6448 10.0783C12.6456 10.1083 12.6531 10.1376 12.6667 10.1643C12.6804 10.191 12.6999 10.2146 12.7238 10.2327C12.833 10.3023 12.9562 10.3466 13.0847 10.3627C13.4323 10.4271 13.771 10.5325 14.0938 10.6768C14.2757 10.7641 14.4293 10.9011 14.5367 11.0721C14.6296 11.2314 14.6774 11.4129 14.6748 11.5973C14.676 11.8213 14.6117 12.0407 14.4897 12.2285C14.3643 12.4224 14.1845 12.5749 13.9728 12.6668C13.7075 12.7739 13.4227 12.8251 13.1367 12.8163C12.6951 12.8625 12.2529 12.7335 11.9048 12.4577V12.4587ZM28.3187 12.7489L27.0188 10.7951V12.7489H26.0088V9.19206H27.0088L28.3177 11.16V9.19206H29.3297V12.7489H28.3187ZM24.4437 12.7489L23.8698 11.6613C23.8236 11.5582 23.7573 11.4654 23.6748 11.3882C23.5979 11.3331 23.5054 11.304 23.4108 11.3051H23.3158V12.7489H22.2367V9.19206H24.0258C24.2824 9.18198 24.539 9.21126 24.7867 9.27903C24.9607 9.33589 25.1105 9.4495 25.2118 9.60197C25.323 9.77316 25.3792 9.97444 25.3728 10.1785C25.3773 10.3568 25.3348 10.5333 25.2498 10.69C25.1673 10.8325 25.0505 10.9516 24.9098 11.0369C24.7923 11.1037 24.665 11.1517 24.5327 11.1791C24.6319 11.2084 24.7263 11.2521 24.8127 11.309C24.877 11.3647 24.9344 11.4279 24.9838 11.4971C25.0408 11.5656 25.0914 11.6396 25.1348 11.7175L25.6548 12.7489H24.4437ZM23.3168 10.6319H23.7698C23.8658 10.625 23.9608 10.6085 24.0537 10.5835C24.1234 10.5692 24.1854 10.5298 24.2278 10.4726C24.2729 10.4131 24.2968 10.3401 24.2958 10.2655C24.2989 10.2161 24.2909 10.1667 24.2723 10.1208C24.2538 10.075 24.2252 10.0336 24.1887 10.0002C24.069 9.92658 23.9284 9.89475 23.7887 9.90929H23.3168V10.6319ZM18.7168 12.7489V9.19206H21.5947V9.9513H19.7948V10.5166H21.4668V11.2431H19.7948V11.9437H21.6498V12.7489H18.7168ZM16.0647 12.7489V10.0705H14.9697V9.19206H18.2347V10.0705H17.1348V12.7489H16.0647ZM8.19971 12.7489V9.19206H11.0778V9.9513H9.27771V10.5166H10.9487V11.2431H9.26978V11.9437H11.1228V12.7489H8.19971ZM6.03271 12.7489L5.42371 10.5088L4.81677 12.7489H3.76379L2.99072 9.19206H4.01074L4.37781 11.183L4.91577 9.19206H5.93176L6.4707 11.181L6.83777 9.19206H7.85278L7.08679 12.7489H6.03271Z" fill="#ECD345" />
  <path d="M34.1199 17.5135V9.12866H35.3198V17.5135H34.1199ZM31.1299 17.5135V9.12866H32.3298V17.5135H31.1299Z" fill="#ECD345" />
</svg>